<svg width="94" height="109" viewBox="0 0 94 109" fill="none" xmlns="http://www.w3.org/2000/svg">
<path d="M14.6536 9.40098C12.876 6.32699 14.3623 2.38099 17.7139 1.27637C20.2164 0.451596 22.9478 1.52172 24.2443 3.83483L78.5849 100.786C80.1042 103.497 78.7245 106.93 75.7639 107.805C73.6536 108.429 71.3937 107.521 70.285 105.603L14.6536 9.40098Z" fill="black"/>
<path d="M7.68691 45.8878V10.6561C7.68691 10.1636 7.69278 9.71592 7.70449 9.31304C7.75216 7.67379 8.44782 6.1596 9.83006 5.25701C10.062 5.10556 10.3145 4.94794 10.5876 4.78414L13.7784 2.82683C15.2287 1.95691 16.2439 1.43496 16.8241 1.26098C17.4042 1.08699 18.6128 1 20.4499 1C21.8918 1 23.0605 2.15778 23.0605 3.58597V6.08903C23.0605 8.08984 22.9155 9.35122 22.6254 9.87317C22.4321 10.3081 21.7069 10.9606 20.4499 11.8305C19.2897 12.5264 18.6128 13.1354 18.4195 13.6573C18.2261 14.0923 18.1294 15.3102 18.1294 17.311V49.411C18.1294 51.4118 17.9844 52.7167 17.6943 53.3256C17.5009 53.8476 16.6791 54.6305 15.2287 55.6744L11.4578 58.5687V59.3636V60.7532V61.5255L15.2287 64.2866C15.3096 64.3448 15.3886 64.4024 15.4656 64.4593C17.2048 65.7441 18.0894 67.7988 18.1246 69.9476C18.1278 70.1403 18.1294 70.3411 18.1294 70.55V81.1195V91.689C18.1294 93.6898 18.2261 94.9077 18.4195 95.3427C18.6128 95.8646 19.2897 96.4736 20.4499 97.1695C21.7069 98.0394 22.4321 98.6918 22.6254 99.1268C22.9155 99.6488 23.0605 100.91 23.0605 102.911V105.414C23.0605 106.842 21.8918 108 20.4499 108C18.6128 108 17.4042 107.913 16.8241 107.739C16.2439 107.565 15.2287 107.043 13.7784 106.173L10.5876 104.216C10.3145 104.052 10.062 103.894 9.83006 103.743C8.44782 102.84 7.75216 101.326 7.70449 99.687C7.69278 99.2841 7.68691 98.8364 7.68691 98.3439V74.0732C7.68691 72.1593 6.8167 70.5065 5.07628 69.1146L4.15789 68.4064C1.53433 66.3832 8.01086e-05 63.274 8.01086e-05 59.9805C8.01086e-05 56.687 1.53433 53.5778 4.15789 51.5546L5.07628 50.8463C6.8167 49.4545 7.68691 47.8016 7.68691 45.8878Z" fill="white"/>
<path d="M86.2427 45.8878V10.6561C86.2427 10.1636 86.2369 9.71592 86.2252 9.31303C86.1775 7.67379 85.4818 6.15961 84.0996 5.25702C83.8676 5.10556 83.6151 4.94793 83.3421 4.78414L80.1513 2.82683C78.701 1.95691 77.6857 1.43496 77.1056 1.26098C76.5255 1.08699 75.3168 1 73.4797 1C72.0379 1 70.8691 2.15778 70.8691 3.58597V6.08903C70.8691 8.08984 71.0142 9.35122 71.3042 9.87317C71.4976 10.3081 72.2228 10.9606 73.4797 11.8305C74.64 12.5264 75.3168 13.1354 75.5102 13.6573C75.7036 14.0923 75.8003 15.3102 75.8003 17.311V49.411C75.8003 51.4118 75.9453 52.7167 76.2354 53.3256C76.4288 53.8476 77.2506 54.6305 78.701 55.6744L82.4719 58.5687V59.3636V60.7533V61.5255L78.701 64.2866C78.62 64.3448 78.5411 64.4024 78.464 64.4593C76.7249 65.7441 75.8403 67.7988 75.805 69.9476C75.8019 70.1404 75.8003 70.3411 75.8003 70.55V81.1195V91.689C75.8003 93.6898 75.7036 94.9077 75.5102 95.3427C75.3168 95.8646 74.64 96.4736 73.4797 97.1695C72.2228 98.0394 71.4976 98.6919 71.3042 99.1268C71.0142 99.6488 70.8691 100.91 70.8691 102.911V105.414C70.8691 106.842 72.0379 108 73.4797 108C75.3168 108 76.5255 107.913 77.1056 107.739C77.6857 107.565 78.701 107.043 80.1513 106.173L83.3421 104.216C83.6151 104.052 83.8676 103.894 84.0996 103.743C85.4818 102.84 86.1775 101.326 86.2252 99.687C86.2369 99.2841 86.2427 98.8364 86.2427 98.3439V74.0732C86.2427 72.1593 87.1129 70.5065 88.8533 69.1146L89.7717 68.4064C92.3953 66.3832 93.9295 63.274 93.9295 59.9805C93.9295 56.687 92.3953 53.5778 89.7717 51.5546L88.8533 50.8463C87.1129 49.4545 86.2427 47.8016 86.2427 45.8878Z" fill="white"/>
<path d="M26 9C26 13.9706 21.9706 18 17 18C12.0294 18 8 13.9706 8 9C8 4.02944 12.0294 0 17 0C21.9706 0 26 4.02944 26 9Z" fill="white"/>
<path d="M86 100C86 104.971 81.9706 109 77 109C72.0294 109 68 104.971 68 100C68 95.0294 72.0294 91 77 91C81.9706 91 86 95.0294 86 100Z" fill="white"/>
<path d="M86 9C86 13.9706 81.9706 18 77 18C72.0294 18 68 13.9706 68 9C68 4.02944 72.0294 0 77 0C81.9706 0 86 4.02944 86 9Z" fill="white"/>
<path d="M26 100C26 104.971 21.9706 109 17 109C12.0294 109 8 104.971 8 100C8 95.0294 12.0294 91 17 91C21.9706 91 26 95.0294 26 100Z" fill="white"/>
</svg>
