<svg width="211" height="82" viewBox="0 0 211 82" fill="none" xmlns="http://www.w3.org/2000/svg">
<path d="M10.5449 6.04557C9.26565 3.83344 10.3352 0.993798 12.7471 0.198885C14.548 -0.394646 16.5136 0.375445 17.4466 2.04002L56.5514 71.8089C57.6448 73.7596 56.6519 76.2297 54.5214 76.8595C53.0028 77.3085 51.3765 76.655 50.5787 75.2753L10.5449 6.04557Z" fill="black"/>
<path d="M5.53146 32.3024V6.94878C5.53146 6.59437 5.53567 6.27221 5.54411 5.98228C5.57841 4.80264 6.07902 3.71299 7.07372 3.06346C7.24063 2.95447 7.42235 2.84104 7.61886 2.72317L9.91502 1.31463C10.9587 0.688618 11.6893 0.31301 12.1068 0.187808C12.5243 0.0626027 13.394 0 14.7161 0C15.7536 0 16.5947 0.833167 16.5947 1.86093V3.6622C16.5947 5.10204 16.4904 6.00976 16.2816 6.38537C16.1425 6.69837 15.6206 7.16789 14.7161 7.7939C13.8811 8.29472 13.394 8.73293 13.2549 9.10854C13.1157 9.42154 13.0461 10.298 13.0461 11.7378V34.8378C13.0461 36.2776 12.9418 37.2167 12.733 37.6549C12.5939 38.0305 12.0024 38.5939 10.9587 39.3451L8.24509 41.4279V42V43V43.5557L10.9587 45.5427C11.017 45.5846 11.0738 45.626 11.1292 45.667C12.3808 46.5916 13.0174 48.0702 13.0427 49.6165C13.045 49.7552 13.0461 49.8997 13.0461 50.05V57.6561V65.2622C13.0461 66.702 13.1157 67.5784 13.2549 67.8915C13.394 68.2671 13.8811 68.7053 14.7161 69.2061C15.6206 69.8321 16.1425 70.3016 16.2816 70.6146C16.4904 70.9902 16.5947 71.898 16.5947 73.3378V75.1391C16.5947 76.1668 15.7536 77 14.7161 77C13.394 77 12.5243 76.9374 12.1068 76.8122C11.6893 76.687 10.9587 76.3114 9.91502 75.6854L7.61886 74.2768C7.42235 74.159 7.24063 74.0455 7.07372 73.9365C6.07902 73.287 5.57841 72.1974 5.54411 71.0177C5.53567 70.7278 5.53146 70.4056 5.53146 70.0512V52.5854C5.53146 51.2081 4.90523 50.0187 3.65278 49.0171L2.99187 48.5074C1.1039 47.0514 -0.000190735 44.814 -0.000190735 42.4439C-0.000190735 40.0738 1.1039 37.8364 2.99187 36.3804L3.65278 35.8707C4.90523 34.8691 5.53146 33.6797 5.53146 32.3024Z" fill="#DB3A00"/>
<path d="M62.0632 32.3024V6.94878C62.0632 6.59437 62.059 6.2722 62.0506 5.98228C62.0163 4.80263 61.5157 3.71299 60.521 3.06346C60.3541 2.95447 60.1724 2.84104 59.9758 2.72317L57.6797 1.31464C56.636 0.688621 55.9054 0.313007 55.4879 0.187805C55.0704 0.0625998 54.2007 0 52.8787 0C51.8411 0 51 0.833168 51 1.86093V3.6622C51 5.10204 51.1044 6.00976 51.3131 6.38537C51.4523 6.69838 51.9741 7.16788 52.8787 7.7939C53.7136 8.29471 54.2007 8.73293 54.3398 9.10854C54.479 9.42154 54.5486 10.298 54.5486 11.7378V34.8378C54.5486 36.2776 54.653 37.2167 54.8617 37.6549C55.0009 38.0305 55.5923 38.5939 56.636 39.3451L59.3496 41.4279V42V43V43.5557L56.636 45.5427C56.5777 45.5846 56.5209 45.626 56.4655 45.667C55.214 46.5916 54.5774 48.0702 54.552 49.6165C54.5497 49.7552 54.5486 49.8997 54.5486 50.05V57.6561V65.2622C54.5486 66.702 54.479 67.5784 54.3398 67.8915C54.2007 68.2671 53.7136 68.7053 52.8787 69.2061C51.9741 69.8321 51.4523 70.3016 51.3131 70.6146C51.1044 70.9902 51 71.898 51 73.3378V75.1391C51 76.1668 51.8411 77 52.8787 77C54.2007 77 55.0704 76.9374 55.4879 76.8122C55.9054 76.687 56.636 76.3114 57.6797 75.6854L59.9758 74.2768C60.1724 74.159 60.3541 74.0455 60.521 73.9365C61.5157 73.287 62.0163 72.1974 62.0506 71.0177C62.059 70.7278 62.0632 70.4056 62.0632 70.0512V52.5854C62.0632 51.2081 62.6895 50.0187 63.9419 49.0171L64.6028 48.5074C66.4908 47.0515 67.5948 44.814 67.5948 42.4439C67.5948 40.0738 66.4908 37.8364 64.6028 36.3804L63.9419 35.8707C62.6895 34.8691 62.0632 33.6797 62.0632 32.3024Z" fill="#DB3A00"/>
<path d="M90.248 74.84H90.032C90.032 75.272 89.636 75.722 88.844 76.19C88.196 76.586 87.746 76.82 87.494 76.892C87.278 76.964 86.846 77 86.198 77H76.964C76.1 77 75.236 76.64 74.372 75.92L73.076 74.84C72.212 74.12 71.78 73.22 71.78 72.14V65.66C71.78 64.58 72.212 63.68 73.076 62.96L74.372 61.88C75.236 61.16 76.1 60.8 76.964 60.8H86.63C87.314 60.8 87.746 60.836 87.926 60.908C88.106 60.944 88.34 61.088 88.628 61.34C89.06 61.7 89.276 62.06 89.276 62.42H89.492V55.994C89.492 55.454 89.456 55.112 89.384 54.968C89.348 54.788 89.168 54.572 88.844 54.32C88.52 54.068 88.268 53.924 88.088 53.888C87.908 53.816 87.494 53.78 86.846 53.78H78.098C77.45 53.78 77 53.834 76.748 53.942C76.532 54.014 76.1 54.32 75.452 54.86L72.212 52.16L73.508 51.08C74.156 50.54 74.588 50.234 74.804 50.162C75.056 50.054 75.506 50 76.154 50H88.844C89.708 50 90.572 50.36 91.436 51.08L92.732 52.16C93.596 52.88 94.028 53.78 94.028 54.86V71.006C94.028 71.546 94.046 71.906 94.082 72.086C94.154 72.23 94.352 72.428 94.676 72.68C95 72.932 95.18 73.148 95.216 73.328C95.288 73.472 95.324 73.814 95.324 74.354V77H93.434C92.786 77 92.336 76.964 92.084 76.892C91.868 76.784 91.544 76.55 91.112 76.19C90.536 75.722 90.248 75.272 90.248 74.84ZM76.316 66.794V71.006C76.316 71.546 76.334 71.906 76.37 72.086C76.442 72.23 76.64 72.428 76.964 72.68C77.288 72.932 77.54 73.094 77.72 73.166C77.9 73.202 78.314 73.22 78.962 73.22H85.55C86.198 73.22 86.63 73.184 86.846 73.112C87.098 73.04 87.548 72.806 88.196 72.41C88.844 72.014 89.222 71.726 89.33 71.546C89.438 71.366 89.492 71.006 89.492 70.466V66.794C89.492 66.254 89.456 65.912 89.384 65.768C89.348 65.588 89.168 65.372 88.844 65.12C88.52 64.868 88.268 64.724 88.088 64.688C87.908 64.616 87.494 64.58 86.846 64.58H78.962C78.314 64.58 77.9 64.616 77.72 64.688C77.54 64.724 77.288 64.868 76.964 65.12C76.64 65.372 76.442 65.588 76.37 65.768C76.334 65.912 76.316 66.254 76.316 66.794ZM120.618 71.006V55.994C120.618 55.454 120.582 55.112 120.51 54.968C120.474 54.788 120.294 54.572 119.97 54.32C119.646 54.068 119.394 53.924 119.214 53.888C119.034 53.816 118.62 53.78 117.972 53.78H110.358C109.674 53.78 109.206 53.816 108.954 53.888C108.738 53.96 108.306 54.194 107.658 54.59C107.01 54.986 106.632 55.274 106.524 55.454C106.416 55.634 106.362 55.994 106.362 56.534V70.466C106.362 71.006 106.416 71.366 106.524 71.546C106.632 71.726 107.01 72.014 107.658 72.41C108.306 72.806 108.738 73.04 108.954 73.112C109.206 73.184 109.656 73.22 110.304 73.22H117.972C118.62 73.22 119.034 73.202 119.214 73.166C119.394 73.094 119.646 72.932 119.97 72.68C120.294 72.428 120.474 72.23 120.51 72.086C120.582 71.906 120.618 71.546 120.618 71.006ZM106.362 37.04V52.538H106.578C106.578 52.214 106.974 51.71 107.766 51.026C108.558 50.342 109.242 50 109.818 50H119.97C120.834 50 121.698 50.36 122.562 51.08L123.858 52.16C124.722 52.88 125.154 53.78 125.154 54.86V72.14C125.154 73.22 124.722 74.12 123.858 74.84L122.562 75.92C121.698 76.64 120.834 77 119.97 77H109.872C109.224 77 108.774 76.964 108.522 76.892C108.306 76.82 107.874 76.586 107.226 76.19C106.398 75.794 105.966 75.398 105.93 75.002H105.714V77H101.826V37.04H106.362ZM131.891 37.04H136.427V70.25C136.427 71.078 136.463 71.6 136.535 71.816C136.607 71.996 136.859 72.23 137.291 72.518C137.759 72.878 138.029 73.166 138.101 73.382C138.209 73.562 138.263 74.066 138.263 74.894V77H136.643C135.959 77 135.509 76.964 135.293 76.892C135.077 76.82 134.699 76.604 134.159 76.244L132.971 75.434C132.431 75.074 132.107 74.786 131.999 74.57C131.927 74.354 131.891 73.832 131.891 73.004V37.04Z" fill="black"/>
</svg>
