<svg width="211" height="84" viewBox="0 0 211 84" fill="none" xmlns="http://www.w3.org/2000/svg">
<path d="M10.5449 8.04557C9.26565 5.83344 10.3352 2.9938 12.7471 2.19889C14.548 1.60535 16.5136 2.37544 17.4466 4.04002L56.5514 73.8089C57.6448 75.7596 56.6519 78.2297 54.5214 78.8595C53.0028 79.3085 51.3765 78.655 50.5787 77.2753L10.5449 8.04557Z" fill="white"/>
<path d="M5.53146 34.3024V8.94878C5.53146 8.59437 5.53567 8.27221 5.54411 7.98228C5.57841 6.80264 6.07902 5.71299 7.07372 5.06346C7.24063 4.95447 7.42235 4.84104 7.61886 4.72317L9.91502 3.31463C10.9587 2.68862 11.6893 2.31301 12.1068 2.18781C12.5243 2.0626 13.394 2 14.7161 2C15.7536 2 16.5947 2.83317 16.5947 3.86093V5.6622C16.5947 7.10204 16.4904 8.00976 16.2816 8.38537C16.1425 8.69837 15.6206 9.16789 14.7161 9.7939C13.8811 10.2947 13.394 10.7329 13.2549 11.1085C13.1157 11.4215 13.0461 12.298 13.0461 13.7378V36.8378C13.0461 38.2776 12.9418 39.2167 12.733 39.6549C12.5939 40.0305 12.0024 40.5939 10.9587 41.3451L8.24509 43.4279V44V45V45.5557L10.9587 47.5427C11.017 47.5846 11.0738 47.626 11.1292 47.667C12.3808 48.5916 13.0174 50.0702 13.0427 51.6165C13.045 51.7552 13.0461 51.8997 13.0461 52.05V59.6561V67.2622C13.0461 68.702 13.1157 69.5784 13.2549 69.8915C13.394 70.2671 13.8811 70.7053 14.7161 71.2061C15.6206 71.8321 16.1425 72.3016 16.2816 72.6146C16.4904 72.9902 16.5947 73.898 16.5947 75.3378V77.1391C16.5947 78.1668 15.7536 79 14.7161 79C13.394 79 12.5243 78.9374 12.1068 78.8122C11.6893 78.687 10.9587 78.3114 9.91502 77.6854L7.61886 76.2768C7.42235 76.159 7.24063 76.0455 7.07372 75.9365C6.07902 75.287 5.57841 74.1974 5.54411 73.0177C5.53567 72.7278 5.53146 72.4056 5.53146 72.0512V54.5854C5.53146 53.2081 4.90523 52.0187 3.65278 51.0171L2.99187 50.5074C1.1039 49.0514 -0.000190735 46.814 -0.000190735 44.4439C-0.000190735 42.0738 1.1039 39.8364 2.99187 38.3804L3.65278 37.8707C4.90523 36.8691 5.53146 35.6797 5.53146 34.3024Z" fill="#DB3A00"/>
<path d="M62.0632 34.3024V8.94878C62.0632 8.59437 62.059 8.2722 62.0506 7.98228C62.0163 6.80263 61.5157 5.71299 60.521 5.06346C60.3541 4.95447 60.1724 4.84104 59.9758 4.72317L57.6797 3.31464C56.636 2.68862 55.9054 2.31301 55.4879 2.18781C55.0704 2.0626 54.2007 2 52.8787 2C51.8411 2 51 2.83317 51 3.86093V5.6622C51 7.10204 51.1044 8.00976 51.3131 8.38537C51.4523 8.69838 51.9741 9.16788 52.8787 9.7939C53.7136 10.2947 54.2007 10.7329 54.3398 11.1085C54.479 11.4215 54.5486 12.298 54.5486 13.7378V36.8378C54.5486 38.2776 54.653 39.2167 54.8617 39.6549C55.0009 40.0305 55.5923 40.5939 56.636 41.3451L59.3496 43.4279V44V45V45.5557L56.636 47.5427C56.5777 47.5846 56.5209 47.626 56.4655 47.667C55.214 48.5916 54.5774 50.0702 54.552 51.6165C54.5497 51.7552 54.5486 51.8997 54.5486 52.05V59.6561V67.2622C54.5486 68.702 54.479 69.5784 54.3398 69.8915C54.2007 70.2671 53.7136 70.7053 52.8787 71.2061C51.9741 71.8321 51.4523 72.3016 51.3131 72.6146C51.1044 72.9902 51 73.898 51 75.3378V77.1391C51 78.1668 51.8411 79 52.8787 79C54.2007 79 55.0704 78.9374 55.4879 78.8122C55.9054 78.687 56.636 78.3114 57.6797 77.6854L59.9758 76.2768C60.1724 76.159 60.3541 76.0455 60.521 75.9365C61.5157 75.287 62.0163 74.1974 62.0506 73.0177C62.059 72.7278 62.0632 72.4056 62.0632 72.0512V54.5854C62.0632 53.2081 62.6895 52.0187 63.9419 51.0171L64.6028 50.5074C66.4908 49.0515 67.5948 46.814 67.5948 44.4439C67.5948 42.0738 66.4908 39.8364 64.6028 38.3804L63.9419 37.8707C62.6895 36.8691 62.0632 35.6797 62.0632 34.3024Z" fill="#DB3A00"/>
<path d="M18.5 7C18.5 10.5899 15.5899 13.5 12 13.5C8.41015 13.5 5.5 10.5899 5.5 7C5.5 3.41015 8.41015 0.5 12 0.5C15.5899 0.5 18.5 3.41015 18.5 7Z" fill="#DB3A00"/>
<path d="M62 74.5C62 78.0899 59.0899 81 55.5 81C51.9101 81 49 78.0899 49 74.5C49 70.9101 51.9101 68 55.5 68C59.0899 68 62 70.9101 62 74.5Z" fill="#DB3A00"/>
<path d="M62 7.5C62 11.0899 59.0899 14 55.5 14C51.9101 14 49 11.0899 49 7.5C49 3.91015 51.9101 1 55.5 1C59.0899 1 62 3.91015 62 7.5Z" fill="#DB3A00"/>
<path d="M18.5186 73.5C18.5186 77.0899 15.6084 80 12.0186 80C8.4287 80 5.51855 77.0899 5.51855 73.5C5.51855 69.9101 8.4287 67 12.0186 67C15.6084 67 18.5186 69.9101 18.5186 73.5Z" fill="#DB3A00"/>
<path d="M90.248 76.84H90.032C90.032 77.272 89.636 77.722 88.844 78.19C88.196 78.586 87.746 78.82 87.494 78.892C87.278 78.964 86.846 79 86.198 79H76.964C76.1 79 75.236 78.64 74.372 77.92L73.076 76.84C72.212 76.12 71.78 75.22 71.78 74.14V67.66C71.78 66.58 72.212 65.68 73.076 64.96L74.372 63.88C75.236 63.16 76.1 62.8 76.964 62.8H86.63C87.314 62.8 87.746 62.836 87.926 62.908C88.106 62.944 88.34 63.088 88.628 63.34C89.06 63.7 89.276 64.06 89.276 64.42H89.492V57.994C89.492 57.454 89.456 57.112 89.384 56.968C89.348 56.788 89.168 56.572 88.844 56.32C88.52 56.068 88.268 55.924 88.088 55.888C87.908 55.816 87.494 55.78 86.846 55.78H78.098C77.45 55.78 77 55.834 76.748 55.942C76.532 56.014 76.1 56.32 75.452 56.86L72.212 54.16L73.508 53.08C74.156 52.54 74.588 52.234 74.804 52.162C75.056 52.054 75.506 52 76.154 52H88.844C89.708 52 90.572 52.36 91.436 53.08L92.732 54.16C93.596 54.88 94.028 55.78 94.028 56.86V73.006C94.028 73.546 94.046 73.906 94.082 74.086C94.154 74.23 94.352 74.428 94.676 74.68C95 74.932 95.18 75.148 95.216 75.328C95.288 75.472 95.324 75.814 95.324 76.354V79H93.434C92.786 79 92.336 78.964 92.084 78.892C91.868 78.784 91.544 78.55 91.112 78.19C90.536 77.722 90.248 77.272 90.248 76.84ZM76.316 68.794V73.006C76.316 73.546 76.334 73.906 76.37 74.086C76.442 74.23 76.64 74.428 76.964 74.68C77.288 74.932 77.54 75.094 77.72 75.166C77.9 75.202 78.314 75.22 78.962 75.22H85.55C86.198 75.22 86.63 75.184 86.846 75.112C87.098 75.04 87.548 74.806 88.196 74.41C88.844 74.014 89.222 73.726 89.33 73.546C89.438 73.366 89.492 73.006 89.492 72.466V68.794C89.492 68.254 89.456 67.912 89.384 67.768C89.348 67.588 89.168 67.372 88.844 67.12C88.52 66.868 88.268 66.724 88.088 66.688C87.908 66.616 87.494 66.58 86.846 66.58H78.962C78.314 66.58 77.9 66.616 77.72 66.688C77.54 66.724 77.288 66.868 76.964 67.12C76.64 67.372 76.442 67.588 76.37 67.768C76.334 67.912 76.316 68.254 76.316 68.794ZM120.618 73.006V57.994C120.618 57.454 120.582 57.112 120.51 56.968C120.474 56.788 120.294 56.572 119.97 56.32C119.646 56.068 119.394 55.924 119.214 55.888C119.034 55.816 118.62 55.78 117.972 55.78H110.358C109.674 55.78 109.206 55.816 108.954 55.888C108.738 55.96 108.306 56.194 107.658 56.59C107.01 56.986 106.632 57.274 106.524 57.454C106.416 57.634 106.362 57.994 106.362 58.534V72.466C106.362 73.006 106.416 73.366 106.524 73.546C106.632 73.726 107.01 74.014 107.658 74.41C108.306 74.806 108.738 75.04 108.954 75.112C109.206 75.184 109.656 75.22 110.304 75.22H117.972C118.62 75.22 119.034 75.202 119.214 75.166C119.394 75.094 119.646 74.932 119.97 74.68C120.294 74.428 120.474 74.23 120.51 74.086C120.582 73.906 120.618 73.546 120.618 73.006ZM106.362 39.04V54.538H106.578C106.578 54.214 106.974 53.71 107.766 53.026C108.558 52.342 109.242 52 109.818 52H119.97C120.834 52 121.698 52.36 122.562 53.08L123.858 54.16C124.722 54.88 125.154 55.78 125.154 56.86V74.14C125.154 75.22 124.722 76.12 123.858 76.84L122.562 77.92C121.698 78.64 120.834 79 119.97 79H109.872C109.224 79 108.774 78.964 108.522 78.892C108.306 78.82 107.874 78.586 107.226 78.19C106.398 77.794 105.966 77.398 105.93 77.002H105.714V79H101.826V39.04H106.362ZM131.891 39.04H136.427V72.25C136.427 73.078 136.463 73.6 136.535 73.816C136.607 73.996 136.859 74.23 137.291 74.518C137.759 74.878 138.029 75.166 138.101 75.382C138.209 75.562 138.263 76.066 138.263 76.894V79H136.643C135.959 79 135.509 78.964 135.293 78.892C135.077 78.82 134.699 78.604 134.159 78.244L132.971 77.434C132.431 77.074 132.107 76.786 131.999 76.57C131.927 76.354 131.891 75.832 131.891 75.004V39.04Z" fill="white"/>
</svg>
